<?xml version="1.0" encoding="UTF-8"?>
<svg version="1.1" xmlns="http://www.w3.org/2000/svg" width="200" height="200">
<path d="M0 0 C2.38446655 0.0184233 4.76854527 0.02050761 7.15307617 0.02026367 C14.51064329 0.03777007 21.76044853 0.1561954 29.05737305 1.20581055 C29.05737305 5.20581055 29.05737305 5.20581055 27.73706055 6.85424805 C27.14151367 7.42401367 26.5459668 7.9937793 25.93237305 8.58081055 C14.11760918 21.63421901 11.99423723 42.3618653 9.49487305 59.14331055 C6.27052499 80.57991029 -0.29526163 99.37440666 -17.5637207 113.32299805 C-32.38473782 123.58539623 -48.56657716 124.39769331 -65.94262695 124.20581055 C-65.40090228 121.94782539 -64.80475965 119.82897326 -64.00512695 117.64331055 C-62.76524171 113.63191712 -62.08331616 109.63763451 -61.4074707 105.4987793 C-60.94262695 103.20581055 -60.94262695 103.20581055 -59.94262695 102.20581055 C-57.63167444 102.07162621 -55.31855815 101.97419975 -53.00512695 101.89331055 C-46.30362273 101.56765384 -40.96606215 100.09705944 -34.94262695 97.20581055 C-33.95262695 96.87581055 -32.96262695 96.54581055 -31.94262695 96.20581055 C-30.93346662 94.43989168 -30.93346662 94.43989168 -29.94262695 92.20581055 C-29.28262695 91.27768555 -28.62262695 90.34956055 -27.94262695 89.39331055 C-24.43779284 83.80748119 -22.958459 77.77908042 -23.94262695 71.20581055 C-25.7017433 65.52909456 -28.1316212 60.84079267 -32.94262695 57.20581055 C-35.8872395 55.96980034 -38.86826631 55.05788054 -41.94262695 54.20581055 C-43.42762695 53.71081055 -43.42762695 53.71081055 -44.94262695 53.20581055 C-43.38658925 49.38644527 -40.98657764 46.94536617 -37.94262695 44.20581055 C-37.28262695 44.20581055 -36.62262695 44.20581055 -35.94262695 44.20581055 C-35.94262695 43.54581055 -35.94262695 42.88581055 -35.94262695 42.20581055 C-33.97387695 40.47924805 -33.97387695 40.47924805 -31.44262695 38.58081055 C-30.60731445 37.94916992 -29.77200195 37.3175293 -28.91137695 36.66674805 C-28.26168945 36.18463867 -27.61200195 35.7025293 -26.94262695 35.20581055 C-31.42035586 37.21913829 -35.27713566 40.17759944 -39.25317383 43.01635742 C-41.81116539 44.81904813 -43.95434179 46.20971549 -46.94262695 47.20581055 C-46.94262695 47.86581055 -46.94262695 48.52581055 -46.94262695 49.20581055 C-48.6574707 50.86206055 -48.6574707 50.86206055 -50.88012695 52.70581055 C-53.86307874 55.09508054 -53.86307874 55.09508054 -55.94262695 58.20581055 C-56.60262695 58.20581055 -57.26262695 58.20581055 -57.94262695 58.20581055 C-57.94262695 58.86581055 -57.94262695 59.52581055 -57.94262695 60.20581055 C-58.60262695 60.20581055 -59.26262695 60.20581055 -59.94262695 60.20581055 C-60.20817383 60.94186523 -60.4737207 61.67791992 -60.74731445 62.4362793 C-61.92979589 65.17608105 -63.26283741 67.15529539 -65.06762695 69.51831055 C-80.05099249 90.47625399 -86.09378878 116.12579315 -87.1418457 141.53393555 C-87.17318604 142.21697754 -87.20452637 142.90001953 -87.23681641 143.60375977 C-87.31258158 145.45737426 -87.35911799 147.31211828 -87.40356445 149.16674805 C-88.05428114 152.83528123 -88.94229051 154.04180482 -91.94262695 156.20581055 C-94.16137695 156.73706055 -94.16137695 156.73706055 -96.44262695 156.70581055 C-97.19543945 156.71612305 -97.94825195 156.72643555 -98.72387695 156.73706055 C-101.84481518 155.98979365 -103.02525856 154.75231545 -104.94262695 152.20581055 C-106.91789933 142.63445395 -104.06958548 131.77600167 -102.27856445 122.35351562 C-101.01795962 115.36454174 -100.89287554 109.22763609 -101.94262695 102.20581055 C-102.12438477 100.94768555 -102.30614258 99.68956055 -102.4934082 98.39331055 C-103.30985233 94.97680591 -104.12921701 92.22522614 -105.94262695 89.20581055 C-108.88409302 87.77116912 -111.47836466 87.33485753 -114.70825195 86.84643555 C-122.95442917 85.21313474 -129.73697074 79.44423456 -134.5168457 72.71362305 C-138.66566802 65.41624243 -140.3528892 57.02852638 -142.1340332 48.8972168 C-143.00864866 45.98605712 -144.34916408 43.77918687 -145.94262695 41.20581055 C-145.94262695 40.54581055 -145.94262695 39.88581055 -145.94262695 39.20581055 C-130.70499836 38.68960481 -116.30696685 40.04104536 -104.56762695 50.95581055 C-97.52950192 58.62081311 -96.49695484 65.16437678 -96.80200195 75.4597168 C-96.8484082 76.36592773 -96.89481445 77.27213867 -96.94262695 78.20581055 C-97.60262695 78.20581055 -98.26262695 78.20581055 -98.94262695 78.20581055 C-100.1965332 76.5612793 -100.1965332 76.5612793 -101.50512695 74.39331055 C-101.93954102 73.68561523 -102.37395508 72.97791992 -102.8215332 72.2487793 C-103.94262695 70.20581055 -103.94262695 70.20581055 -104.94262695 67.20581055 C-105.60262695 67.20581055 -106.26262695 67.20581055 -106.94262695 67.20581055 C-106.94262695 66.54581055 -106.94262695 65.88581055 -106.94262695 65.20581055 C-108.26262695 64.87581055 -109.58262695 64.54581055 -110.94262695 64.20581055 C-110.45793945 64.74206055 -109.97325195 65.27831055 -109.47387695 65.83081055 C-104.96472999 71.10304392 -101.54765528 76.39329493 -98.44262695 82.58081055 C-98.09264648 83.27045898 -97.74266602 83.96010742 -97.38208008 84.6706543 C-95.68589431 88.15858559 -94.94262695 90.2589635 -94.94262695 94.20581055 C-94.28262695 94.20581055 -93.62262695 94.20581055 -92.94262695 94.20581055 C-92.41668945 92.38049805 -92.41668945 92.38049805 -91.88012695 90.51831055 C-89.01189561 81.88630004 -84.29708203 73.53932499 -78.94262695 66.20581055 C-78.28262695 66.20581055 -77.62262695 66.20581055 -76.94262695 66.20581055 C-76.71575195 65.50456055 -76.48887695 64.80331055 -76.25512695 64.08081055 C-69.00002581 48.18868424 -47.31283757 37.71644793 -31.94262695 31.20581055 C-57.88694307 38.14440672 -75.49566189 52.21375757 -88.94262695 75.20581055 C-89.60262695 76.19581055 -90.26262695 77.18581055 -90.94262695 78.20581055 C-91.60262695 78.20581055 -92.26262695 78.20581055 -92.94262695 78.20581055 C-93.72007733 61.13069666 -90.44981328 42.56899467 -78.94262695 29.20581055 C-78.28262695 29.20581055 -77.62262695 29.20581055 -76.94262695 29.20581055 C-76.70286133 28.63217773 -76.4630957 28.05854492 -76.21606445 27.4675293 C-74.68660199 24.75109137 -72.89875104 23.08224599 -70.56762695 21.01831055 C-69.41133789 19.97610352 -69.41133789 19.97610352 -68.23168945 18.9128418 C-66.02983853 17.27084717 -64.6227981 16.61579106 -61.94262695 16.20581055 C-61.94262695 15.54581055 -61.94262695 14.88581055 -61.94262695 14.20581055 C-54.27328654 10.33206801 -46.62778651 6.85320577 -38.38012695 4.39331055 C-37.74598877 4.19906494 -37.11185059 4.00481934 -36.45849609 3.8046875 C-24.48142182 0.40294144 -12.35715072 -0.09865221 0 0 Z " fill="#63933B" transform="translate(157.942626953125,20.794189453125)"/>
<path d="M0 0 C0 0.66 0 1.32 0 2 C-0.99 2 -1.98 2 -3 2 C-3 2.70125 -3 3.4025 -3 4.125 C-4.53501436 8.53816629 -8.06457444 10.65805964 -12 13 C-12.66 13 -13.32 13 -14 13 C-14 13.66 -14 14.32 -14 15 C-15.71484375 16.65625 -15.71484375 16.65625 -17.9375 18.5 C-20.92045179 20.88926999 -20.92045179 20.88926999 -23 24 C-23.66 24 -24.32 24 -25 24 C-25 24.66 -25 25.32 -25 26 C-25.66 26 -26.32 26 -27 26 C-27.26554687 26.73605469 -27.53109375 27.47210938 -27.8046875 28.23046875 C-28.98716893 30.9702705 -30.32021045 32.94948485 -32.125 35.3125 C-47.10836554 56.27044345 -53.15116183 81.9199826 -54.19921875 107.328125 C-54.23055908 108.01116699 -54.26189941 108.69420898 -54.29418945 109.39794922 C-54.36995463 111.25156371 -54.41649104 113.10630773 -54.4609375 114.9609375 C-55.11165418 118.62947068 -55.99966356 119.83599427 -59 122 C-61.21875 122.53125 -61.21875 122.53125 -63.5 122.5 C-64.2528125 122.5103125 -65.005625 122.520625 -65.78125 122.53125 C-68.90218822 121.7839831 -70.0826316 120.5465049 -72 118 C-73.97527238 108.4286434 -71.12695853 97.57019112 -69.3359375 88.14770508 C-68.07533267 81.15873119 -67.95024859 75.02182554 -69 68 C-69.18175781 66.741875 -69.36351562 65.48375 -69.55078125 64.1875 C-70.36722537 60.77099537 -71.18659005 58.01941559 -73 55 C-75.94146607 53.56535857 -78.5357377 53.12904698 -81.765625 52.640625 C-90.01180222 51.0073242 -96.79434379 45.23842402 -101.57421875 38.5078125 C-105.72304106 31.21043188 -107.41026225 22.82271584 -109.19140625 14.69140625 C-110.06602171 11.78024658 -111.40653713 9.57337633 -113 7 C-113 6.34 -113 5.68 -113 5 C-97.7623714 4.48379426 -83.36433989 5.83523481 -71.625 16.75 C-64.58687497 24.41500257 -63.55432789 30.95856623 -63.859375 41.25390625 C-63.90578125 42.16011719 -63.9521875 43.06632812 -64 44 C-64.66 44 -65.32 44 -66 44 C-67.25390625 42.35546875 -67.25390625 42.35546875 -68.5625 40.1875 C-68.99691406 39.47980469 -69.43132812 38.77210937 -69.87890625 38.04296875 C-71 36 -71 36 -72 33 C-72.66 33 -73.32 33 -74 33 C-74 32.34 -74 31.68 -74 31 C-75.32 30.67 -76.64 30.34 -78 30 C-77.5153125 30.53625 -77.030625 31.0725 -76.53125 31.625 C-72.02210303 36.89723338 -68.60502833 42.18748438 -65.5 48.375 C-65.15001953 49.06464844 -64.80003906 49.75429687 -64.43945312 50.46484375 C-62.74326736 53.95277504 -62 56.05315296 -62 60 C-61.34 60 -60.68 60 -60 60 C-59.4740625 58.1746875 -59.4740625 58.1746875 -58.9375 56.3125 C-56.06926866 47.68048949 -51.35445507 39.33351444 -46 32 C-45.34 32 -44.68 32 -44 32 C-43.773125 31.29875 -43.54625 30.5975 -43.3125 29.875 C-38.64490956 19.65075428 -27.89248769 13.060328 -18.75 7.125 C-18.18418213 6.75592529 -17.61836426 6.38685059 -17.03540039 6.0065918 C-11.75733026 2.66445475 -6.43055115 -0.58459556 0 0 Z " fill="#3D6B39" transform="translate(125,55)"/>
<path d="M0 0 C7.09092453 1.36996224 11.42977577 4.6523511 15.52734375 10.48828125 C17.50547405 16.42267215 17.2691394 22.44405124 14.90234375 28.23828125 C12.31680166 33.31958967 9.52900044 37.22312017 4.1640625 39.484375 C-4.02451103 42.08135811 -11.93766687 42.6428384 -20.47265625 42.48828125 C-20.570625 43.57367188 -20.66859375 44.6590625 -20.76953125 45.77734375 C-20.91970301 47.2227469 -21.07079357 48.66805478 -21.22265625 50.11328125 C-21.31546875 51.18255859 -21.31546875 51.18255859 -21.41015625 52.2734375 C-21.96165116 57.28284962 -23.21649646 60.47698236 -26.47265625 64.48828125 C-30.36307809 66.97152923 -32.93364474 67.62652526 -37.47265625 67.48828125 C-36.29366846 49.47822646 -30.36735034 30.15836439 -19.47265625 15.48828125 C-18.48265625 15.15828125 -17.49265625 14.82828125 -16.47265625 14.48828125 C-16.61501082 16.21773778 -16.76170007 17.94683779 -16.91015625 19.67578125 C-16.99136719 20.63871094 -17.07257813 21.60164063 -17.15625 22.59375 C-17.44931776 25.27477727 -17.89969379 27.85457985 -18.47265625 30.48828125 C-16.05352497 30.23252732 -13.63855086 29.95934744 -11.22265625 29.67578125 C-10.54074219 29.60552734 -9.85882813 29.53527344 -9.15625 29.46289062 C-5.15896444 28.97778315 -2.25715031 28.5076954 0.52734375 25.48828125 C1.32985606 23.33649357 1.32985606 23.33649357 1.46484375 20.98828125 C1.60212891 19.828125 1.60212891 19.828125 1.7421875 18.64453125 C1.68389979 16.45596346 1.68389979 16.45596346 0.44921875 14.75 C-2.36288533 12.90384224 -4.82954546 12.96566297 -8.16015625 12.80078125 C-9.33964844 12.73503906 -10.51914063 12.66929688 -11.734375 12.6015625 C-12.63800781 12.56417969 -13.54164062 12.52679688 -14.47265625 12.48828125 C-13.77332682 7.93871116 -12.48691588 5.27027984 -9.40625 1.88671875 C-6.33143221 -0.33708887 -3.70045308 -0.28379415 0 0 Z " fill="#F8C45E" transform="translate(114.47265625,77.51171875)"/>
<path d="M0 0 C0 0.66 0 1.32 0 2 C-0.99 2 -1.98 2 -3 2 C-3 2.70125 -3 3.4025 -3 4.125 C-4.53501436 8.53816629 -8.06457444 10.65805964 -12 13 C-12.66 13 -13.32 13 -14 13 C-14 13.66 -14 14.32 -14 15 C-15.71484375 16.65625 -15.71484375 16.65625 -17.9375 18.5 C-20.92045179 20.88926999 -20.92045179 20.88926999 -23 24 C-23.66 24 -24.32 24 -25 24 C-25 24.66 -25 25.32 -25 26 C-25.66 26 -26.32 26 -27 26 C-27.33 26.99 -27.66 27.98 -28 29 C-28.66 28.67 -29.32 28.34 -30 28 C-29.42618522 24.67187429 -28.40619252 23.30157545 -26 21 C-26 20.34 -26 19.68 -26 19 C-29.72614153 20.11854586 -29.72614153 20.11854586 -32 23 C-33.32 22.67 -34.64 22.34 -36 22 C-35.67 22.99 -35.34 23.98 -35 25 C-37.17105124 27.87517597 -39.4542872 30.4542872 -42 33 C-42.85210421 30.64632191 -43.22746271 29.50106172 -42.171875 27.17578125 C-35.7901676 18.81293941 -27.49661007 12.81755417 -18.75 7.125 C-18.18410156 6.75576416 -17.61820313 6.38652832 -17.03515625 6.00610352 C-11.75654642 2.66467582 -6.43076072 -0.58461461 0 0 Z " fill="#53774F" transform="translate(125,55)"/>
<path d="M0 0 C0.66 0.99 1.32 1.98 2 3 C1.15528873 5.53708735 0.25737906 7.7854108 -0.875 10.1875 C-1.17019531 10.84169922 -1.46539062 11.49589844 -1.76953125 12.16992188 C-2.50070435 13.78557856 -3.24877569 15.39356835 -4 17 C-0.59538535 18.76100758 2.09349661 20 6 20 C6 19.01 6 18.02 6 17 C6.66 17 7.32 17 8 17 C6.59757517 21.00486265 4.6854228 24.00297149 2.125 27.375 C-0.91885761 31.46483777 -3.60285613 35.50535524 -6 40 C-6.66 40 -7.32 40 -8 40 C-8.6527656 25.66333327 -6.11665545 12.98278252 0 0 Z " fill="#659140" transform="translate(73,59)"/>
<path d="M0 0 C2 0 4 0 6 0 C6.55353075 13.6332574 6.55353075 13.6332574 3 20 C0.03 20.33 -2.94 20.66 -6 21 C-5 11.42857143 -5 11.42857143 -4 7 C-3.34 7 -2.68 7 -2 7 C-1.855625 6.030625 -1.71125 5.06125 -1.5625 4.0625 C-1 1 -1 1 0 0 Z " fill="#F8C35D" transform="translate(85,121)"/>
<path d="M0 0 C0.33 0 0.66 0 1 0 C1 3.63 1 7.26 1 11 C6.28 11.33 11.56 11.66 17 12 C17 12.33 17 12.66 17 13 C13.7 13 10.4 13 7 13 C6.90203125 14.08539063 6.8040625 15.17078125 6.703125 16.2890625 C6.55295324 17.73446565 6.40186268 19.17977353 6.25 20.625 C6.1571875 21.69427734 6.1571875 21.69427734 6.0625 22.78515625 C5.51100509 27.79456837 4.25615979 30.98870111 1 35 C-2.89042184 37.48324798 -5.46098849 38.13824401 -10 38 C-9.11045564 24.41144312 -5.30647659 12.41612484 0 0 Z M-2 14 C-3.4606285 16.64738916 -4 17.89448334 -4 21 C-4.66 21 -5.32 21 -6 21 C-7.33583899 25.84241633 -8.25328119 29.93437617 -8 35 C-5.03 34.67 -2.06 34.34 1 34 C4.65111665 27.45841601 4.29887594 21.36120371 4 14 C3.38125 14.185625 2.7625 14.37125 2.125 14.5625 C0 15 0 15 -2 14 Z " fill="#F6D185" transform="translate(87,107)"/>
<path d="M0 0 C5.9681991 2.58403345 9.58482472 7.71745923 12.9375 13.125 C15.06847333 18.67332691 14.21821389 25.17288102 14 31 C13.34 31 12.68 31 12 31 C10.74609375 29.35546875 10.74609375 29.35546875 9.4375 27.1875 C9.00308594 26.47980469 8.56867187 25.77210937 8.12109375 25.04296875 C7 23 7 23 6 20 C5.34 20 4.68 20 4 20 C4 19.34 4 18.68 4 18 C3.401875 17.731875 2.80375 17.46375 2.1875 17.1875 C0 16 0 16 -3 13 C2.94 12.505 2.94 12.505 9 12 C8.33131686 8.88667752 8.33131686 8.88667752 5.9375 7.8125 C5.298125 7.544375 4.65875 7.27625 4 7 C4 6.34 4 5.68 4 5 C3.34 5 2.68 5 2 5 C1.34 3.35 0.68 1.7 0 0 Z " fill="#5B7A57" transform="translate(47,68)"/>
<path d="M0 0 C1.98 0 3.96 0 6 0 C6 0.66 6 1.32 6 2 C9.63 2.33 13.26 2.66 17 3 C16.67 4.65 16.34 6.3 16 8 C15.34 8 14.68 8 14 8 C14.33 8.99 14.66 9.98 15 11 C7.08 11.495 7.08 11.495 -1 12 C-0.67 8.04 -0.34 4.08 0 0 Z " fill="#F9C35A" transform="translate(88,107)"/>
<path d="M0 0 C0.66 0 1.32 0 2 0 C1.85764543 1.72945653 1.71095618 3.45855654 1.5625 5.1875 C1.48128906 6.15042969 1.40007812 7.11335938 1.31640625 8.10546875 C1.02333849 10.78649602 0.57296246 13.3662986 0 16 C2.41913128 15.74424607 4.83410539 15.47106619 7.25 15.1875 C8.27287109 15.08211914 8.27287109 15.08211914 9.31640625 14.97460938 C13.36261503 14.48356462 16.06339911 13.88765755 19 11 C19.66 10.01 20.32 9.02 21 8 C21.25 10.8125 21.25 10.8125 21 14 C17.73605838 17.38051096 14.40504823 17.94102267 9.8359375 18.1328125 C8.69382812 18.13023438 7.55171875 18.12765625 6.375 18.125 C5.22773437 18.12757812 4.08046875 18.13015625 2.8984375 18.1328125 C0 18 0 18 -2 17 C-2 16.34 -2 15.68 -2 15 C-3.98 15 -5.96 15 -8 15 C-6.5482621 9.33822218 -3.68441695 4.50540116 0 0 Z " fill="#EEC778" transform="translate(96,92)"/>
<path d="M0 0 C4.96215458 -0.02490464 9.92427195 -0.04295606 14.88647461 -0.05493164 C16.57105138 -0.05992943 18.25562388 -0.06672989 19.94018555 -0.07543945 C22.37549906 -0.08770622 24.81075474 -0.09327398 27.24609375 -0.09765625 C27.98709824 -0.10281754 28.72810272 -0.10797882 29.49156189 -0.11329651 C34.72962823 -0.11384595 39.80160321 0.35048134 45 1 C45 5 45 5 43.125 7.25 C41 9 41 9 39 9 C39 8.34 39 7.68 39 7 C37.68 6.67 36.36 6.34 35 6 C35 5.01 35 4.02 35 3 C28.54729633 2.16486747 22.31288566 1.90158387 15.8125 2 C10.41276802 2.0806532 5.31792525 2.11406617 0 1 C0 0.67 0 0.34 0 0 Z " fill="#729755" transform="translate(142,21)"/>
<path d="M0 0 C0.66 0 1.32 0 2 0 C1.979375 0.763125 1.95875 1.52625 1.9375 2.3125 C1.87057159 5.10185786 1.87057159 5.10185786 3 8 C2.67 8.66 2.34 9.32 2 10 C-3.06232884 10.48990279 -7.32630846 8.7106322 -12 7 C-10.62963573 4.14752501 -9.44627723 2.05487288 -7 0 C-3.80926781 -1.0635774 -3.06624043 -0.89019883 0 0 Z " fill="#61903A" transform="translate(125,67)"/>
<path d="M0 0 C0.598125 0.350625 1.19625 0.70125 1.8125 1.0625 C-13.28838383 7.55910355 -25.99587904 9.24130318 -42.1875 9.0625 C-41.8575 7.7425 -41.5275 6.4225 -41.1875 5.0625 C-40.8575 5.7225 -40.5275 6.3825 -40.1875 7.0625 C-38.20840602 7.08936553 -36.22921029 7.10883375 -34.25 7.125 C-32.59677734 7.14240234 -32.59677734 7.14240234 -30.91015625 7.16015625 C-28.27302366 7.37512571 -28.27302366 7.37512571 -27.1875 6.0625 C-23.89476348 5.56360053 -20.59480902 5.16095232 -17.2890625 4.7578125 C-14.03306156 4.02787778 -13.33525051 3.41915025 -11.1875 1.0625 C-8 1.375 -8 1.375 -5.1875 2.0625 C-5.1875 1.4025 -5.1875 0.7425 -5.1875 0.0625 C-2.1875 -0.9375 -2.1875 -0.9375 0 0 Z " fill="#7C9E5D" transform="translate(134.1875,135.9375)"/>
<path d="M0 0 C0 0.66 0 1.32 0 2 C-0.99 2 -1.98 2 -3 2 C-3 2.763125 -3 3.52625 -3 4.3125 C-4 7 -4 7 -5.7421875 7.96484375 C-7.81209423 8.72684238 -9.88074714 9.38978711 -12 10 C-12.99 10.33 -13.98 10.66 -15 11 C-15.66 9.35 -16.32 7.7 -17 6 C-15.11076602 4.98758753 -13.21330056 3.99052575 -11.3125 3 C-10.25675781 2.443125 -9.20101562 1.88625 -8.11328125 1.3125 C-5.07773738 0.0327726 -3.23973174 -0.28851043 0 0 Z " fill="#366736" transform="translate(125,55)"/>
<path d="M0 0 C-0.33 1.32 -0.66 2.64 -1 4 C-6.94 3.01 -6.94 3.01 -13 2 C-13.33 3.32 -13.66 4.64 -14 6 C-14.66152556 8.3347961 -15.32741333 10.66836622 -16 13 C-16.33 13 -16.66 13 -17 13 C-17.33 14.65 -17.66 16.3 -18 18 C-18.99 18 -19.98 18 -21 18 C-20.52555245 15.35323911 -20.04568672 12.70766636 -19.5625 10.0625 C-19.42779297 9.30775391 -19.29308594 8.55300781 -19.15429688 7.77539062 C-18.11328125 2.11328125 -18.11328125 2.11328125 -17 1 C-14.51550143 0.76240332 -12.05267525 0.57775918 -9.5625 0.4375 C-8.86833984 0.39431641 -8.17417969 0.35113281 -7.45898438 0.30664062 C-2.43105159 0 -2.43105159 0 0 0 Z " fill="#7B9D5D" transform="translate(115,122)"/>
<path d="M0 0 C1.32 0.66 2.64 1.32 4 2 C3.67 2.99 3.34 3.98 3 5 C1.34795544 5.70211894 -0.31923769 6.36971413 -2 7 C-2.33 7.66 -2.66 8.32 -3 9 C-4.32 8.67 -5.64 8.34 -7 8 C-6.67 8.99 -6.34 9.98 -6 11 C-8.17105124 13.87517597 -10.4542872 16.4542872 -13 19 C-13.65234375 17.23828125 -13.65234375 17.23828125 -14 15 C-10.96171952 8.83445175 -5.23929697 4.25526657 0 0 Z " fill="#4D7449" transform="translate(96,69)"/>
<path d="M0 0 C0.99 0.33 1.98 0.66 3 1 C2.67 1.99 2.34 2.98 2 4 C1.34 4 0.68 4 0 4 C-0.33 6.64 -0.66 9.28 -1 12 C-2.65 12 -4.3 12 -6 12 C-8 6.25 -8 6.25 -8 4 C-6.68 4.33 -5.36 4.66 -4 5 C-3.67 4.01 -3.34 3.02 -3 2 C-2.01 1.34 -1.02 0.68 0 0 Z " fill="#376634" transform="translate(97,73)"/>
<path d="M0 0 C0.99 0.66 1.98 1.32 3 2 C3 2.66 3 3.32 3 4 C1.28515625 5.65625 1.28515625 5.65625 -0.9375 7.5 C-3.92045179 9.88926999 -3.92045179 9.88926999 -6 13 C-6.66 13 -7.32 13 -8 13 C-8 13.66 -8 14.32 -8 15 C-8.66 15 -9.32 15 -10 15 C-10.33 15.99 -10.66 16.98 -11 18 C-11.66 17.67 -12.32 17.34 -13 17 C-12.42194191 13.0981079 -10.644973 10.86538742 -8 8 C-6.35394174 6.96642853 -4.69036558 5.95939668 -3 5 C-2.67 4.34 -2.34 3.68 -2 3 C-1.34 3 -0.68 3 0 3 C0 2.01 0 1.02 0 0 Z " fill="#53774F" transform="translate(108,66)"/>
<path d="M0 0 C0.9867097 3.11074833 0.96838493 5.16442757 0.22265625 8.328125 C0.03896484 9.12734375 -0.14472656 9.9265625 -0.33398438 10.75 C-0.53314453 11.575 -0.73230469 12.4 -0.9375 13.25 C-1.23043945 14.51070312 -1.23043945 14.51070312 -1.52929688 15.796875 C-2.01142286 17.86648898 -2.50463863 19.93351395 -3 22 C-0.03 21.67 2.94 21.34 6 21 C2.09618178 24.90381822 0.33820964 24.56244183 -5 25 C-4.46468462 16.82259611 -3.70315043 7.40630085 0 0 Z " fill="#F2D89B" transform="translate(82,120)"/>
<path d="M0 0 C5.14719992 0.08964644 9.17659053 1.37143814 13.375 4.375 C13.705 5.035 14.035 5.695 14.375 6.375 C12.0625 6.5625 12.0625 6.5625 9.375 6.375 C8.9315625 5.8903125 8.488125 5.405625 8.03125 4.90625 C5.79621606 2.83989787 4.18642948 2.88223568 1.1875 2.6875 C0.28644531 2.62175781 -0.61460938 2.55601563 -1.54296875 2.48828125 C-2.23003906 2.45089844 -2.91710937 2.41351563 -3.625 2.375 C-3.955 3.365 -4.285 4.355 -4.625 5.375 C-5.285 5.375 -5.945 5.375 -6.625 5.375 C-6.625 6.035 -6.625 6.695 -6.625 7.375 C-7.945 7.705 -9.265 8.035 -10.625 8.375 C-5.21569894 0.08073837 -5.21569894 0.08073837 0 0 Z " fill="#EECF89" transform="translate(111.625,77.625)"/>
<path d="M0 0 C-0.33 0.99 -0.66 1.98 -1 3 C-1.99 3 -2.98 3 -4 3 C-6.01254782 4.31431695 -8.01310269 5.64721885 -10 7 C-10.66 7 -11.32 7 -12 7 C-12 6.01 -12 5.02 -12 4 C-11.01 4 -10.02 4 -9 4 C-10.32 3.01 -11.64 2.02 -13 1 C-11.59054634 0.43983252 -10.1719969 -0.09748502 -8.75 -0.625 C-7.96109375 -0.92664062 -7.1721875 -1.22828125 -6.359375 -1.5390625 C-3.50082285 -2.09752136 -2.41040161 -1.53690745 0 0 Z " fill="#638261" transform="translate(134,53)"/>
<path d="M0 0 C0.66 0 1.32 0 2 0 C4.41014799 6.74841438 4.41014799 6.74841438 3.2421875 10.3125 C2.24094067 12.27298331 1.19108825 14.14938354 0 16 C-0.33 16 -0.66 16 -1 16 C-1.02712153 14.083412 -1.04645097 12.1667127 -1.0625 10.25 C-1.07410156 9.18265625 -1.08570313 8.1153125 -1.09765625 7.015625 C-1.01510087 4.46631499 -0.74617558 2.42066409 0 0 Z " fill="#3C6439" transform="translate(59,122)"/>
<path d="M0 0 C2.66666667 1.33333333 5.33333333 2.66666667 8 4 C7.67 5.98 7.34 7.96 7 10 C6.34 10 5.68 10 5 10 C4.67 9.34 4.34 8.68 4 8 C3.34 7.71125 2.68 7.4225 2 7.125 C0 6 0 6 -0.8125 4 C-1 2 -1 2 0 0 Z " fill="#376633" transform="translate(52,82)"/>
<path d="M0 0 C0.33 0.66 0.66 1.32 1 2 C2.97909398 2.02686553 4.95828971 2.04633375 6.9375 2.0625 C8.59072266 2.07990234 8.59072266 2.07990234 10.27734375 2.09765625 C12.91447634 2.31262571 12.91447634 2.31262571 14 1 C16.01964199 0.92755947 18.04167124 0.91622812 20.0625 0.9375 C21.16722656 0.94652344 22.27195312 0.95554688 23.41015625 0.96484375 C24.26480469 0.97644531 25.11945313 0.98804688 26 1 C21.87500363 5.12499637 14.2399984 4.04729348 8.64892578 4.06591797 C5.43230971 4.06094638 2.21642672 4.03551882 -1 4 C-0.67 2.68 -0.34 1.36 0 0 Z " fill="#93AD79" transform="translate(93,141)"/>
<path d="M0 0 C2.5625718 -0.02710123 5.12485365 -0.04688771 7.6875 -0.0625 C8.40873047 -0.07087891 9.12996094 -0.07925781 9.87304688 -0.08789062 C13.71555382 -0.10543632 17.26639526 0.06475779 21 1 C20.360625 1.12375 19.72125 1.2475 19.0625 1.375 C18.381875 1.58125 17.70125 1.7875 17 2 C16.67 2.66 16.34 3.32 16 4 C15.113125 3.67 14.22625 3.34 13.3125 3 C10.22007472 2.06643765 8.17474042 1.48517723 5 2 C3.15684329 3.9004467 3.15684329 3.9004467 2 6 C1.34 4.02 0.68 2.04 0 0 Z " fill="#5B7A5A" transform="translate(12,60)"/>
<path d="M0 0 C0.125 6.75 0.125 6.75 -1 9 C-2.98 9 -4.96 9 -7 9 C-4.6 0 -4.6 0 0 0 Z " fill="#F5CB73" transform="translate(95,98)"/>
<path d="M0 0 C0.33 1.32 0.66 2.64 1 4 C1.66 4 2.32 4 3 4 C3 5.98 3 7.96 3 10 C2.01 10.495 2.01 10.495 1 11 C0.87882812 10.43410156 0.75765625 9.86820313 0.6328125 9.28515625 C0.46523437 8.55167969 0.29765625 7.81820312 0.125 7.0625 C-0.03742188 6.33160156 -0.19984375 5.60070312 -0.3671875 4.84765625 C-0.82961523 2.79299706 -0.82961523 2.79299706 -3 2 C-5.204364 1.77049681 -7.41392173 1.58924067 -9.625 1.4375 C-10.81351562 1.35371094 -12.00203125 1.26992187 -13.2265625 1.18359375 C-14.59941406 1.09271484 -14.59941406 1.09271484 -16 1 C-16 0.67 -16 0.34 -16 0 C-14.27185839 -0.19672365 -12.54240803 -0.38196799 -10.8125 -0.5625 C-9.84957031 -0.66691406 -8.88664062 -0.77132812 -7.89453125 -0.87890625 C-5.05766623 -0.99758751 -2.74576329 -0.67765639 0 0 Z " fill="#F7E29F" transform="translate(116,89)"/>
<path d="M0 0 C2.64 0.33 5.28 0.66 8 1 C5.53846154 5.8 5.53846154 5.8 2.8125 6.8125 C2.214375 6.874375 1.61625 6.93625 1 7 C1 6.01 1 5.02 1 4 C0.01 3.67 -0.98 3.34 -2 3 C-1.34 2.01 -0.68 1.02 0 0 Z " fill="#366432" transform="translate(99,67)"/>
<path d="M0 0 C0 0.66 0 1.32 0 2 C-0.99 2 -1.98 2 -3 2 C-3.33 3.65 -3.66 5.3 -4 7 C-4.99 7.33 -5.98 7.66 -7 8 C-7.33 7.01 -7.66 6.02 -8 5 C-10.00016466 3.79117904 -10.00016466 3.79117904 -12 3 C-4.71428571 -0.42857143 -4.71428571 -0.42857143 0 0 Z " fill="#477042" transform="translate(125,55)"/>
<path d="M0 0 C1.670625 0.061875 1.670625 0.061875 3.375 0.125 C3.375 3.125 3.375 3.125 1.375 6.125 C-1.25 6.3125 -1.25 6.3125 -3.625 6.125 C-4.285 4.805 -4.945 3.485 -5.625 2.125 C-3.625 0.125 -3.625 0.125 0 0 Z " fill="#366335" transform="translate(62.625,170.875)"/>
<path d="M0 0 C3.73487777 0.4979837 5.81237635 0.87491756 9 3 C9.33 3.99 9.66 4.98 10 6 C12.01508358 6.73323796 12.01508358 6.73323796 14 7 C14 7.66 14 8.32 14 9 C15.32 9.33 16.64 9.66 18 10 C13.43835966 10.44037694 11.09045341 9.17692906 7.3125 6.6875 C6.35988281 6.07261719 5.40726563 5.45773438 4.42578125 4.82421875 C2 3 2 3 0 0 Z " fill="#688566" transform="translate(27,97)"/>
<path d="M0 0 C0.66 0 1.32 0 2 0 C1.85764543 1.72945653 1.71095618 3.45855654 1.5625 5.1875 C1.48128906 6.15042969 1.40007812 7.11335938 1.31640625 8.10546875 C1.02333849 10.78649602 0.57296246 13.3662986 0 16 C-0.33 16 -0.66 16 -1 16 C-1.33 13.03 -1.66 10.06 -2 7 C-2.99 7.495 -2.99 7.495 -4 8 C-2.25 2.25 -2.25 2.25 0 0 Z " fill="#F2D495" transform="translate(96,92)"/>
<path d="M0 0 C3.19746603 2.9911779 4.84920258 4.86779462 5.16796875 9.375 C5.17441406 10.24125 5.18085938 11.1075 5.1875 12 C5.20167969 12.86625 5.21585938 13.7325 5.23046875 14.625 C5 17 5 17 3 20 C3 15.38 3 10.76 3 6 C2.34 6 1.68 6 1 6 C0.67 4.02 0.34 2.04 0 0 Z " fill="#F0D696" transform="translate(126,84)"/>
<path d="M0 0 C0.99 0.33 1.98 0.66 3 1 C2.34 1 1.68 1 1 1 C1.33 1.66 1.66 2.32 2 3 C4.32156597 3.40729228 6.6568787 3.74438677 9 4 C6.90217213 6.09782787 5.6200793 6.6509396 2.875 7.625 C2.15054688 7.88539062 1.42609375 8.14578125 0.6796875 8.4140625 C-0.15175781 8.70410156 -0.15175781 8.70410156 -1 9 C-1.33 6.69 -1.66 4.38 -2 2 C-1.34 2 -0.68 2 0 2 C0 1.34 0 0.68 0 0 Z " fill="#739B53" transform="translate(106,50)"/>
<path d="M0 0 C0.33 0.66 0.66 1.32 1 2 C1.99 2.33 2.98 2.66 4 3 C2.68 3 1.36 3 0 3 C0.33 3.99 0.66 4.98 1 6 C-1.35438733 7.42944945 -2.48032433 8.08661261 -5.25 7.625 C-5.8275 7.41875 -6.405 7.2125 -7 7 C-6.34 6.34 -5.68 5.68 -5 5 C-5.99 4.34 -6.98 3.68 -8 3 C-5.29120665 1.64560332 -2.99066732 1.93498549 0 2 C0 1.34 0 0.68 0 0 Z " fill="#4F7631" transform="translate(138,45)"/>
<path d="M0 0 C3.71599191 -0.20086443 4.77208445 -0.1519437 8 2 C8.29296875 5.0390625 8.29296875 5.0390625 8.1875 8.625 C8.16042969 9.81351563 8.13335937 11.00203125 8.10546875 12.2265625 C8.07066406 13.14179687 8.03585938 14.05703125 8 15 C5.66916634 11.50374951 4.91495397 8.30904945 3.87890625 4.27734375 C3.12215021 1.66505332 3.12215021 1.66505332 0 0 Z " fill="#638159" transform="translate(49,108)"/>
<path d="M0 0 C-0.33 1.32 -0.66 2.64 -1 4 C-6.94 3.01 -6.94 3.01 -13 2 C-13 2.66 -13 3.32 -13 4 C-14.32 3.67 -15.64 3.34 -17 3 C-17.33 3.99 -17.66 4.98 -18 6 C-17.67 4.35 -17.34 2.7 -17 1 C-14.54171921 0.83252588 -12.08338135 0.6659856 -9.625 0.5 C-8.92632812 0.45230469 -8.22765625 0.40460938 -7.5078125 0.35546875 C-2.2265625 0 -2.2265625 0 0 0 Z " fill="#719450" transform="translate(115,122)"/>
<path d="M0 0 C0.66 0 1.32 0 2 0 C0.61219205 3.89006773 -1.2152227 6.96558708 -3.625 10.3125 C-4.25664063 11.19550781 -4.88828125 12.07851562 -5.5390625 12.98828125 C-6.02117187 13.65214844 -6.50328125 14.31601563 -7 15 C-7.66 14.67 -8.32 14.34 -9 14 C-8.34 12.35 -7.68 10.7 -7 9 C-6.34 9 -5.68 9 -5 9 C-4.34 7.02 -3.68 5.04 -3 3 C-2.01 3 -1.02 3 0 3 C0 2.01 0 1.02 0 0 Z " fill="#7A9B63" transform="translate(79,76)"/>
<path d="M0 0 C1 2 1 2 1 6 C1.9590625 6.433125 1.9590625 6.433125 2.9375 6.875 C5 8 5 8 6 10 C2.37 9.01 -1.26 8.02 -5 7 C-3.38262276 3.76524552 -2.52370777 2.29427979 0 0 Z " fill="#8BA86E" transform="translate(118,67)"/>
<path d="M0 0 C0.66 0.33 1.32 0.66 2 1 C0.75 3.5 0.75 3.5 -1 6 C-2.32 6 -3.64 6 -5 6 C-5 6.66 -5 7.32 -5 8 C-6.98 8.66 -8.96 9.32 -11 10 C-10.67 9.34 -10.34 8.68 -10 8 C-9.34 8 -8.68 8 -8 8 C-8 7.34 -8 6.68 -8 6 C-6.25 4.4921875 -6.25 4.4921875 -4 2.875 C-3.2575 2.33617187 -2.515 1.79734375 -1.75 1.2421875 C-1.1725 0.83226562 -0.595 0.42234375 0 0 Z " fill="#73975A" transform="translate(130,57)"/>
<path d="M0 0 C0.66 0.33 1.32 0.66 2 1 C1.29630087 5.74996912 -1.70531276 8.70531276 -5 12 C-5.68359375 10.265625 -5.68359375 10.265625 -6 8 C-4.78515625 5.859375 -4.78515625 5.859375 -3.0625 3.75 C-2.49660156 3.04359375 -1.93070312 2.3371875 -1.34765625 1.609375 C-0.90292969 1.07828125 -0.45820312 0.5471875 0 0 Z " fill="#5E7E5B" transform="translate(88,76)"/>
<path d="M0 0 C0.99 0.33 1.98 0.66 3 1 C1.40907948 5.13639336 -1.60474918 8.23213248 -5 11 C-5.66 11 -6.32 11 -7 11 C-6.67 10.01 -6.34 9.02 -6 8 C-5.34 8 -4.68 8 -4 8 C-4 7.34 -4 6.68 -4 6 C-3.34 6 -2.68 6 -2 6 C-1.34 4.02 -0.68 2.04 0 0 Z " fill="#7D9A62" transform="translate(148,121)"/>
<path d="M0 0 C2.0625 0.4375 2.0625 0.4375 4 1 C3.43628586 4.26954202 2.50037734 5.82575883 0 8 C-0.99 7.01 -1.98 6.02 -3 5 C-1.125 1.125 -1.125 1.125 0 0 Z " fill="#486F44" transform="translate(86,91)"/>
<path d="M0 0 C0.33 0.66 0.66 1.32 1 2 C0.67 2.99 0.34 3.98 0 5 C-0.66 5 -1.32 5 -2 5 C-2.103125 5.5775 -2.20625 6.155 -2.3125 6.75 C-3.09792798 9.32049158 -4.30504197 10.93657284 -6 13 C-6.66 12.34 -7.32 11.68 -8 11 C-7.21718695 9.66144944 -6.42348123 8.32926356 -5.625 7 C-5.18414062 6.2575 -4.74328125 5.515 -4.2890625 4.75 C-3.86367187 4.1725 -3.43828125 3.595 -3 3 C-2.34 3 -1.68 3 -1 3 C-0.67 2.01 -0.34 1.02 0 0 Z " fill="#82A163" transform="translate(82,47)"/>
<path d="M0 0 C-0.33 1.98 -0.66 3.96 -1 6 C-4 6 -4 6 -5.6875 4.625 C-7 3 -7 3 -7 1 C-4.50935112 0.31292445 -2.62113708 0 0 0 Z M-6 6 C-5.01 6.495 -5.01 6.495 -4 7 C-4.99 7.495 -4.99 7.495 -6 8 C-6 7.34 -6 6.68 -6 6 Z " fill="#81A762" transform="translate(145,47)"/>
<path d="M0 0 C0.66 0.99 1.32 1.98 2 3 C1.21572648 4.64936913 0.42234741 6.29441127 -0.375 7.9375 C-0.81585938 8.85402344 -1.25671875 9.77054688 -1.7109375 10.71484375 C-3 13 -3 13 -5 14 C-4.54636829 12.41531323 -4.08688548 10.83230076 -3.625 9.25 C-3.36976562 8.36828125 -3.11453125 7.4865625 -2.8515625 6.578125 C-2.0790066 4.23919428 -1.16374324 2.16557438 0 0 Z " fill="#80A062" transform="translate(73,59)"/>
<path d="M0 0 C-1.55966218 0.508783 -3.12289241 1.00663469 -4.6875 1.5 C-5.99267578 1.91765625 -5.99267578 1.91765625 -7.32421875 2.34375 C-9.99391677 2.99850805 -12.26396684 3.11831495 -15 3 C-15 2.34 -15 1.68 -15 1 C-13.25215171 0.63536268 -11.50159498 0.2836922 -9.75 -0.0625 C-8.28820312 -0.35833984 -8.28820312 -0.35833984 -6.796875 -0.66015625 C-4.131881 -0.98397535 -2.51128277 -0.85503199 0 0 Z " fill="#F0D18B" transform="translate(121,116)"/>
<path d="M0 0 C3 2 3 2 3.6875 3.625 C4.14471421 7.099828 4.05840231 10.49586168 4 14 C3.01 14.495 3.01 14.495 2 15 C1.93941406 14.33613281 1.87882813 13.67226562 1.81640625 12.98828125 C1.20136493 6.45091919 1.20136493 6.45091919 0 0 Z " fill="#7A995E" transform="translate(133,87)"/>
<path d="M0 0 C2.64 0 5.28 0 8 0 C8 1.32 8 2.64 8 4 C6 5.75 6 5.75 4 7 C3.896875 6.21625 3.79375 5.4325 3.6875 4.625 C3.22404978 1.66954819 3.22404978 1.66954819 0 0 Z " fill="#86A26F" transform="translate(179,22)"/>
<path d="M0 0 C0.33 0 0.66 0 1 0 C0.40546697 11.70615034 0.40546697 11.70615034 -3 16 C-3.33 15.34 -3.66 14.68 -4 14 C-3.71125 13.29875 -3.4225 12.5975 -3.125 11.875 C-2.12404051 9.31699241 -1.73159232 7.44022153 -1.4375 4.75 C-1 1 -1 1 0 0 Z " fill="#EED593" transform="translate(92,125)"/>
<path d="M0 0 C-0.33 2.64 -0.66 5.28 -1 8 C-1.99 8.33 -2.98 8.66 -4 9 C-4 6.36 -4 3.72 -4 1 C-2 0 -2 0 0 0 Z " fill="#336732" transform="translate(61,111)"/>
<path d="M0 0 C0.66 0 1.32 0 2 0 C2 0.99 2 1.98 2 3 C2.66 3.33 3.32 3.66 4 4 C5.04808041 5.97522846 6.0520411 7.97481509 7 10 C6.01 10 5.02 10 4 10 C2.39453125 8.25 2.39453125 8.25 0.8125 6 C0.28269531 5.2575 -0.24710937 4.515 -0.79296875 3.75 C-1.19128906 3.1725 -1.58960937 2.595 -2 2 C-1.34 2 -0.68 2 0 2 C0 1.34 0 0.68 0 0 Z " fill="#87A86F" transform="translate(127,75)"/>
<path d="M0 0 C0.33 0 0.66 0 1 0 C1.25 2.8125 1.25 2.8125 1 6 C-0.625 7.9375 -0.625 7.9375 -3 9 C-6.25 8.6875 -6.25 8.6875 -9 8 C-8.4225 7.731875 -7.845 7.46375 -7.25 7.1875 C-3.5421173 5.23056191 -1.35687262 4.07061787 0 0 Z " fill="#F3D186" transform="translate(116,100)"/>
<path d="M0 0 C1.67542976 0.28604898 3.34385343 0.61781233 5 1 C5 1.66 5 2.32 5 3 C3.25 4.2890625 3.25 4.2890625 1 5.625 C0.2575 6.07101563 -0.485 6.51703125 -1.25 6.9765625 C-1.8275 7.31429687 -2.405 7.65203125 -3 8 C-2.67 6.68 -2.34 5.36 -2 4 C-1.34 4 -0.68 4 0 4 C-0.33 3.01 -0.66 2.02 -1 1 C-0.67 0.67 -0.34 0.34 0 0 Z " fill="#769C5A" transform="translate(93,61)"/>
<path d="M0 0 C-0.33 0.66 -0.66 1.32 -1 2 C-4.01490557 3.00496852 -6.04181692 3.10335303 -9.1875 3.0625 C-10.53908203 3.04896484 -10.53908203 3.04896484 -11.91796875 3.03515625 C-12.60503906 3.02355469 -13.29210937 3.01195312 -14 3 C-9.11521152 0.50693368 -5.53108342 -0.12570644 0 0 Z " fill="#85A866" transform="translate(134,23)"/>
<path d="M0 0 C0.33 0 0.66 0 1 0 C1 3.3 1 6.6 1 10 C-0.98 10.33 -2.96 10.66 -5 11 C-4.360625 9.9275 -3.72125 8.855 -3.0625 7.75 C-1.59398727 5.19177818 -0.47145458 2.94659114 0 0 Z " fill="#8BAC75" transform="translate(133,103)"/>
<path d="M0 0 C0.33 0 0.66 0 1 0 C1 2.64 1 5.28 1 8 C1.99 8 2.98 8 4 8 C3.34 9.65 2.68 11.3 2 13 C1.34 13 0.68 13 0 13 C0 8.71 0 4.42 0 0 Z " fill="#91AA82" transform="translate(65,86)"/>
<path d="M0 0 C1.32 0.33 2.64 0.66 4 1 C4 1.66 4 2.32 4 3 C4.66 3 5.32 3 6 3 C6.33 2.34 6.66 1.68 7 1 C7 2.98 7 4.96 7 7 C3.00003714 5.66667905 2.16217663 3.5042173 0 0 Z " fill="#54724A" transform="translate(53,89)"/>
<path d="M0 0 C0.66 0.66 1.32 1.32 2 2 C1.67 2.66 1.34 3.32 1 4 C-0.32 4 -1.64 4 -3 4 C-3.33 3.34 -3.66 2.68 -4 2 C-6.02463255 1.34786708 -6.02463255 1.34786708 -8 1 C-5.23749964 -0.38125018 -3.05268901 -0.19079306 0 0 Z " fill="#336D2A" transform="translate(117,59)"/>
<path d="M0 0 C0.99 0 1.98 0 3 0 C1.375 5.75 1.375 5.75 -2 8 C-1.125 2.25 -1.125 2.25 0 0 Z " fill="#7F9E60" transform="translate(153,114)"/>
<path d="M0 0 C2.50037734 2.17424117 3.43628586 3.73045798 4 7 C2.68 7.33 1.36 7.66 0 8 C-1.125 2.25 -1.125 2.25 0 0 Z " fill="#4A703A" transform="translate(57,101)"/>
<path d="M0 0 C0.99 0.33 1.98 0.66 3 1 C2.34 2.65 1.68 4.3 1 6 C0.34 6 -0.32 6 -1 6 C-1 6.66 -1 7.32 -1 8 C-1.66 7.67 -2.32 7.34 -3 7 C-2.01 4.69 -1.02 2.38 0 0 Z " fill="#4E7B4B" transform="translate(67,108)"/>
<path d="M0 0 C0.33 0 0.66 0 1 0 C1 2.64 1 5.28 1 8 C0.01 8.495 0.01 8.495 -1 9 C-1.625 6.1875 -1.625 6.1875 -2 3 C-1.34 2.01 -0.68 1.02 0 0 Z " fill="#385D35" transform="translate(70,146)"/>
<path d="M0 0 C0.66 0 1.32 0 2 0 C2.66 2.64 3.32 5.28 4 8 C3.01 8.33 2.02 8.66 1 9 C0.67 6.03 0.34 3.06 0 0 Z " fill="#346831" transform="translate(59,122)"/>
<path d="M0 0 C0.33 0 0.66 0 1 0 C0.48041715 4.37934119 -0.05675742 8.68803391 -1 13 C-3 10 -3 10 -2.75 8.1875 C-2.5025 7.465625 -2.255 6.74375 -2 6 C-1.649375 4.9275 -1.29875 3.855 -0.9375 2.75 C-0.4734375 1.38875 -0.4734375 1.38875 0 0 Z " fill="#7FA263" transform="translate(165,84)"/>
<path d="M0 0 C2.64 0 5.28 0 8 0 C6.68 0.33 5.36 0.66 4 1 C4 1.66 4 2.32 4 3 C2.68 2.67 1.36 2.34 0 2 C-0.33 2.99 -0.66 3.98 -1 5 C-0.67 3.35 -0.34 1.7 0 0 Z " fill="#A9BC94" transform="translate(98,123)"/>
<path d="M0 0 C0.33 0.99 0.66 1.98 1 3 C-0.65 4.65 -2.3 6.3 -4 8 C-4 6.68 -4 5.36 -4 4 C-3.34 4 -2.68 4 -2 4 C-2 3.01 -2 2.02 -2 1 C-1.34 0.67 -0.68 0.34 0 0 Z " fill="#F1D191" transform="translate(128,104)"/>
<path d="M0 0 C0.66 0 1.32 0 2 0 C2 1.65 2 3.3 2 5 C1.01 5.495 1.01 5.495 0 6 C-0.66 5.67 -1.32 5.34 -2 5 C-1.125 1.125 -1.125 1.125 0 0 Z " fill="#EADAAC" transform="translate(96,92)"/>
<path d="M0 0 C1.32 1.32 2.64 2.64 4 4 C2.02 4.99 2.02 4.99 0 6 C-0.38218767 4.34385343 -0.71395102 2.67542976 -1 1 C-0.67 0.67 -0.34 0.34 0 0 Z " fill="#4E784A" transform="translate(43,82)"/>
<path d="M0 0 C0.33 1.32 0.66 2.64 1 4 C0.34 4 -0.32 4 -1 4 C-1 4.66 -1 5.32 -1 6 C-2.32 6.33 -3.64 6.66 -5 7 C-1.125 1.125 -1.125 1.125 0 0 Z " fill="#F3D394" transform="translate(106,79)"/>
</svg>
