<?xml version="1.0" encoding="UTF-8"?>
<svg version="1.1" xmlns="http://www.w3.org/2000/svg" width="250" height="250">
<path d="M0 0 C4.59448772 0.55133853 8.66605138 1.38539169 13 3 C13.71800781 3.25523438 14.43601563 3.51046875 15.17578125 3.7734375 C29.9271754 9.27874249 43.21954039 17.65699581 50.203125 32.16796875 C51 34 51 34 52 37 C52.78375 36.01 53.5675 35.02 54.375 34 C55.24125 33.01 56.1075 32.02 57 31 C57.66 31 58.32 31 59 31 C59 30.34 59 29.68 59 29 C59.99 28.67 60.98 28.34 62 28 C62.33 27.34 62.66 26.68 63 26 C70.91256019 22.39518898 80.32643132 20.44636796 89 21 C90.74280974 22.74280974 90.21376316 25.06700657 90.25 27.4375 C90.19624055 34.95486357 88.47166197 41.3585597 85 48 C84.34 48 83.68 48 83 48 C82.76539063 48.59554687 82.53078125 49.19109375 82.2890625 49.8046875 C79.30969972 54.8786326 72.4072875 57.83825347 66.875 59.375 C62.79322697 60.03335049 59.12267659 60.07232766 55 60 C53.68890367 61.07782917 53.68890367 61.07782917 53.97265625 63.66015625 C54.00230469 64.78292969 54.03195313 65.90570313 54.0625 67.0625 C54.11013521 72.50482292 53.54729552 76.81200914 52 82 C51.835 83.051875 51.67 84.10375 51.5 85.1875 C50.99288275 88.04003452 50.13038238 90.34027676 49 93 C48.731875 93.9075 48.46375 94.815 48.1875 95.75 C46.84308447 99.42945302 45.02836362 102.59415452 43.0234375 105.94921875 C41.77673413 108.06538884 41.77673413 108.06538884 42 111 C42.99 111.66 43.98 112.32 45 113 C43.95125002 115.62187494 43.35068687 116.79371361 40.875 118.25 C40.25625 118.4975 39.6375 118.745 39 119 C39.99 119.33 40.98 119.66 42 120 C38.44633731 126.85349233 38.44633731 126.85349233 34 129 C32.79597225 131.16713617 32.79597225 131.16713617 33 134 C33.89836165 135.81399949 34.80312158 137.62502779 35.734375 139.42236328 C38.44415812 144.94124641 40.66981081 150.6876123 43 156.375 C43.52577897 157.65114993 44.05181909 158.9271923 44.578125 160.203125 C47.42720766 167.11881695 50.24025322 174.04816956 53 181 C53.38285156 181.96292969 53.76570312 182.92585937 54.16015625 183.91796875 C54.45792969 184.66691406 54.75570312 185.41585937 55.0625 186.1875 C56.37312116 189.46913282 57.74360377 192.71615949 59.15234375 195.95703125 C60.78956369 199.90295765 62.27548284 203.90920107 63.79296875 207.90234375 C64.73822601 210.32819814 65.73360718 212.69507167 66.8125 215.0625 C68 218 68 218 68 222 C62.08023011 222.85297439 56.3323536 223.16010794 50.35546875 223.16796875 C49.46386551 223.17129715 48.57226227 223.17462555 47.65364075 223.17805481 C45.78382886 223.18308579 43.9140081 223.18546433 42.04418945 223.18530273 C39.17840096 223.187507 36.31298709 223.20575111 33.44726562 223.22460938 C31.62500131 223.22754052 29.80273518 223.22952718 27.98046875 223.23046875 C27.12422409 223.23765427 26.26797943 223.24483978 25.38578796 223.25224304 C19.34327933 223.22885288 19.34327933 223.22885288 16 221 C14.9375 218.25 14.9375 218.25 14 215 C13.608125 213.9275 13.21625 212.855 12.8125 211.75 C12 209 12 209 13 207 C12.34 207 11.68 207 11 207 C10.76812988 206.29915283 10.53625977 205.59830566 10.29736328 204.8762207 C9.24149891 201.6877847 8.18327356 198.50013714 7.125 195.3125 C6.76019531 194.20970703 6.39539063 193.10691406 6.01953125 191.97070312 C5.66503906 190.90400391 5.31054688 189.83730469 4.9453125 188.73828125 C4.62062988 187.75899658 4.29594727 186.77971191 3.96142578 185.77075195 C3.32000955 183.92224184 2.62205416 182.09240744 1.86987305 180.28613281 C0.37885338 176.36755067 1.67753017 172.85178371 3 169 C4.625 166.625 4.625 166.625 6 165 C6 164.01 6 163.02 6 162 C5.34 162 4.68 162 4 162 C3.74476563 162.89332031 3.48953125 163.78664062 3.2265625 164.70703125 C1.9838235 168.04342927 0.63035283 169.96939549 -1.625 172.6875 C-9.91427613 183.68440465 -15.1537117 198.13349907 -17.0625 211.6875 C-17.55953955 215.18320793 -18.06334893 218.59324257 -19 222 C-24.40339274 223.11780875 -29.64972656 223.16136437 -35.140625 223.16796875 C-36.10401794 223.17129715 -37.06741089 223.17462555 -38.05999756 223.17805481 C-40.08719405 223.18310009 -42.11439879 223.18546388 -44.14160156 223.18530273 C-47.25339166 223.1875024 -50.36483444 223.20571919 -53.4765625 223.22460938 C-55.44791545 223.22754109 -57.41927009 223.22952737 -59.390625 223.23046875 C-60.32392639 223.23765427 -61.25722778 223.24483978 -62.21881104 223.25224304 C-63.08020691 223.24916641 -63.94160278 223.24608978 -64.82910156 223.24291992 C-65.58821838 223.24434494 -66.34733521 223.24576996 -67.12945557 223.24723816 C-69 223 -69 223 -71 221 C-71.038287 203.15825592 -55.76185472 183.88196315 -45 171 C-44.30519531 170.08347656 -43.61039062 169.16695312 -42.89453125 168.22265625 C-42.26933594 167.48917969 -41.64414063 166.75570312 -41 166 C-40.34 166 -39.68 166 -39 166 C-38.71125 165.38125 -38.4225 164.7625 -38.125 164.125 C-37 162 -37 162 -35 160 C-34.01 160 -33.02 160 -32 160 C-32 159.34 -32 158.68 -32 158 C-31.34 158 -30.68 158 -30 158 C-29.61630249 157.10462524 -29.61630249 157.10462524 -29.22485352 156.19116211 C-27.87215495 153.77129573 -26.59549363 152.61526298 -24.40234375 150.94140625 C-23.68240234 150.39033203 -22.96246094 149.83925781 -22.22070312 149.27148438 C-21.46724609 148.70751953 -20.71378906 148.14355469 -19.9375 147.5625 C-19.21111328 147.00240234 -18.48472656 146.44230469 -17.73632812 145.86523438 C-12.73066039 142.07225714 -7.56639753 138.90352889 -2 136 C-10.0014548 139.15589666 -17.55929439 142.68711059 -25 147 C-25.59780273 147.34611328 -26.19560547 147.69222656 -26.81152344 148.04882812 C-36.35106497 153.59787859 -45.2260365 159.07451997 -53 167 C-53.81597656 167.83015625 -54.63195312 168.6603125 -55.47265625 169.515625 C-60.92135501 175.26839895 -65.79952321 181.21372507 -70.375 187.6875 C-70.86234619 188.37553711 -71.34969238 189.06357422 -71.85180664 189.77246094 C-76.82293396 196.94700224 -80.85864575 204.57507311 -84.75 212.375 C-85.05292969 212.97699219 -85.35585937 213.57898438 -85.66796875 214.19921875 C-86.95456966 216.77813879 -88.08703234 219.26109701 -89 222 C-91.3845183 223.19225915 -92.84909216 223.12682707 -95.50976562 223.12939453 C-96.44413452 223.13254669 -97.37850342 223.13569885 -98.34118652 223.13894653 C-99.85839294 223.13591019 -99.85839294 223.13591019 -101.40625 223.1328125 C-102.44189087 223.13376923 -103.47753174 223.13472595 -104.54455566 223.13571167 C-106.7368984 223.13639298 -108.92924315 223.13454209 -111.12158203 223.13037109 C-114.4860485 223.12502218 -117.85038146 223.13031775 -121.21484375 223.13671875 C-123.34114613 223.13605796 -125.46744843 223.13477678 -127.59375 223.1328125 C-128.60522095 223.13483673 -129.61669189 223.13686096 -130.65881348 223.13894653 C-131.59318237 223.13579437 -132.52755127 223.13264221 -133.49023438 223.12939453 C-134.31471069 223.12859894 -135.13918701 223.12780334 -135.98864746 223.12698364 C-138 223 -138 223 -140 222 C-139.59721154 216.89801281 -137.70611997 213.10203614 -135.3515625 208.66015625 C-134.05402225 206.10632702 -132.93013819 203.50997799 -131.81689453 200.87182617 C-129.16186282 194.78810588 -126.01952088 188.90855916 -123 183 C-122.49597656 182.00871094 -121.99195312 181.01742187 -121.47265625 179.99609375 C-121.04855469 179.19300781 -120.62445313 178.38992187 -120.1875 177.5625 C-119.83042969 176.88316406 -119.47335938 176.20382813 -119.10546875 175.50390625 C-118 174 -118 174 -115 173 C-115 172.34 -115 171.68 -115 171 C-113.625 169.375 -113.625 169.375 -112 168 C-111.34 168 -110.68 168 -110 168 C-109.7628125 167.41734375 -109.525625 166.8346875 -109.28125 166.234375 C-107.7273194 163.52447163 -105.98070569 162.13469198 -103.5 160.25 C-102.30890625 159.32960937 -102.30890625 159.32960937 -101.09375 158.390625 C-99 157 -99 157 -97 157 C-96.67 156.01 -96.34 155.02 -96 154 C-92.9375 152.8125 -92.9375 152.8125 -90 152 C-90 151.34 -90 150.68 -90 150 C-89.07767578 149.49339844 -89.07767578 149.49339844 -88.13671875 148.9765625 C-87.32847656 148.53054687 -86.52023438 148.08453125 -85.6875 147.625 C-84.88699219 147.18414062 -84.08648437 146.74328125 -83.26171875 146.2890625 C-81.46472057 145.26486665 -79.72099292 144.14732862 -78 143 C-77.01 143 -76.02 143 -75 143 C-75 142.34 -75 141.68 -75 141 C-72.09399739 139.74335022 -70.20395416 139 -67 139 C-66.67 138.34 -66.34 137.68 -66 137 C-64.35857037 135.9590934 -62.69287785 134.95495674 -61 134 C-71.48881104 137.6857878 -80.90971467 141.77393305 -90.3984375 147.609375 C-93 149 -93 149 -96 149 C-96 149.66 -96 150.32 -96 151 C-97.65071396 152.02611949 -99.31970006 153.02308143 -101 154 C-101.7425 154.804375 -101.7425 154.804375 -102.5 155.625 C-104.51536084 157.4724141 -106.33833049 157.64031493 -109 158 C-108.52411358 152.27057795 -107.49662758 148.32877137 -104.75 143.1875 C-104.02994074 141.80865222 -103.31272192 140.42831904 -102.59765625 139.046875 C-102.19305176 138.26892578 -101.78844727 137.49097656 -101.37158203 136.68945312 C-98.85265592 131.75024165 -96.46014104 126.74905126 -94.05944824 121.75161743 C-93.20233009 119.9683545 -92.3419162 118.18667687 -91.48144531 116.4050293 C-88.11522023 109.41227795 -84.91404122 102.43160265 -82.125 95.1875 C-80.46618814 91.02493839 -78.57679916 87.05827566 -76.5390625 83.0703125 C-74.52629121 79.05498704 -72.60611317 74.99849023 -70.6875 70.9375 C-70.30295654 70.12394043 -69.91841309 69.31038086 -69.5222168 68.47216797 C-67.59235245 64.38459413 -65.66783642 60.29452272 -63.74609375 56.203125 C-63.38878174 55.44265869 -63.03146973 54.68219238 -62.66333008 53.89868164 C-61.99177387 52.46856536 -61.32098585 51.03808798 -60.65112305 49.60717773 C-60.05150824 48.32925559 -59.44828772 47.05301669 -58.84082031 45.77880859 C-58.0266048 44.05628413 -57.243204 42.31929823 -56.4609375 40.58203125 C-55 38 -55 38 -52 37 C-51.505 36.01 -51.505 36.01 -51 35 C-45.07334784 35.11817586 -39.1468659 35.24241928 -33.22045898 35.37231445 C-31.20389271 35.41565529 -29.18728993 35.45733098 -27.1706543 35.49731445 C-24.27381383 35.55503747 -21.37715694 35.61872622 -18.48046875 35.68359375 C-17.57725388 35.70030624 -16.674039 35.71701874 -15.74345398 35.73423767 C-14.90280899 35.75418289 -14.062164 35.77412811 -13.19604492 35.79467773 C-12.45658127 35.81022202 -11.71711761 35.8257663 -10.95524597 35.84178162 C-9 36 -9 36 -6 37 C-5.04296875 38.72265625 -5.04296875 38.72265625 -4.1875 41.0625 C-3.68089844 42.41021484 -3.68089844 42.41021484 -3.1640625 43.78515625 C-2.77992188 44.84605469 -2.39578125 45.90695313 -2 47 C-1.02728477 49.66906955 -0.0477035 52.33551494 0.9375 55 C1.32059326 56.03858154 1.32059326 56.03858154 1.71142578 57.09814453 C3.48673087 61.83416057 5.56257895 66.29836441 7.91796875 70.77734375 C9.32760841 73.67295735 10.23419218 76.64030156 11.18359375 79.7109375 C12.42275851 83.18534205 14.17148513 86.37106714 15.8671875 89.640625 C17.34071665 92.70963054 18.1446725 95.71027884 19 99 C19.62469505 100.35350594 20.2716331 101.69934483 21 103 C29.30508845 100.73497588 34.1864262 92.85288511 38.42578125 85.8984375 C43.63915422 76.29962175 46.06434672 66.78047732 44 56 C43.01 56.495 43.01 56.495 42 57 C32.93156095 57.64774565 25.15476031 54.72282536 17 51 C17 50.34 17 49.68 17 49 C16.40058594 48.90847656 15.80117187 48.81695312 15.18359375 48.72265625 C11.12576686 47.37972606 9.31017559 43.41504217 7 40 C6.25943359 38.94425781 6.25943359 38.94425781 5.50390625 37.8671875 C1.28440956 31.57977883 1.28440956 31.57977883 2 27 C1.34 26.67 0.68 26.34 0 26 C-4.85775536 8.56923077 -4.85775536 8.56923077 -1.51171875 2.140625 C-1.01285156 1.43421875 -0.51398438 0.7278125 0 0 Z M-33 85 C-33.38800781 86.22203125 -33.77601562 87.4440625 -34.17578125 88.703125 C-36.60074547 95.98514572 -39.63602312 103.03422365 -42.59179688 110.11328125 C-43.02943359 111.18449219 -43.46707031 112.25570312 -43.91796875 113.359375 C-44.31781982 114.32327148 -44.7176709 115.28716797 -45.12963867 116.28027344 C-46.00873712 119.02730197 -46.17344755 121.13762738 -46 124 C-44.9171875 123.505 -44.9171875 123.505 -43.8125 123 C-40.94141078 121.97916828 -39.01521279 121.67403105 -36 122 C-35.34 122.66 -34.68 123.32 -34 124 C-27.93924575 124.72729051 -24.08841463 122.96053215 -19 120 C-19.19335938 119.3709375 -19.38671875 118.741875 -19.5859375 118.09375 C-21.2092125 112.75783615 -22.69460565 107.42240732 -24 102 C-24.66 102 -25.32 102 -26 102 C-25.9484375 101.30519531 -25.896875 100.61039063 -25.84375 99.89453125 C-26.03347219 96.37992762 -27.08685786 93.90239837 -28.5 90.6875 C-28.9640625 89.61886719 -29.428125 88.55023438 -29.90625 87.44921875 C-30.2671875 86.64097656 -30.628125 85.83273438 -31 85 C-31.66 85 -32.32 85 -33 85 Z M-54 130 C-53.67 130.66 -53.34 131.32 -53 132 C-52.01 131.67 -51.02 131.34 -50 131 C-51.32 130.67 -52.64 130.34 -54 130 Z M-57 131 C-57.99 131.495 -57.99 131.495 -59 132 C-59 132.66 -59 133.32 -59 134 C-57.68 133.67 -56.36 133.34 -55 133 C-55.66 132.34 -56.32 131.68 -57 131 Z M10 155 C9.34 156.65 8.68 158.3 8 160 C9.32 158.68 10.64 157.36 12 156 C11.34 155.67 10.68 155.34 10 155 Z " fill="#5C3D2F" transform="translate(148,10)"/>
<path d="M0 0 C3.16524451 0.33913334 3.97600118 0.97247195 6.125 3.4375 C6.74375 4.283125 7.3625 5.12875 8 6 C8.66 6.66 9.32 7.32 10 8 C9.67 8.99 9.34 9.98 9 11 C11.0745356 12.2236068 11.0745356 12.2236068 14 12 C14.66 11.01 15.32 10.02 16 9 C15.34 8.67 14.68 8.34 14 8 C14 7.34 14 6.68 14 6 C14.99 6 15.98 6 17 6 C17 6.66 17 7.32 17 8 C20.12474627 6.36526484 20.12474627 6.36526484 20.6875 3.875 C20.790625 3.25625 20.89375 2.6375 21 2 C21.61875 2.350625 22.2375 2.70125 22.875 3.0625 C23.57625 3.371875 24.2775 3.68125 25 4 C25.66 3.67 26.32 3.34 27 3 C27.99 3.66 28.98 4.32 30 5 C28.95125002 7.62187494 28.35068687 8.79371361 25.875 10.25 C25.25625 10.4975 24.6375 10.745 24 11 C24.99 11.33 25.98 11.66 27 12 C26.34 13.32 25.68 14.64 25 16 C24.67 15.01 24.34 14.02 24 13 C22.35 13 20.7 13 19 13 C19 13.66 19 14.32 19 15 C17.5882217 15.53394179 16.17029756 16.05165104 14.75 16.5625 C13.96109375 16.85253906 13.1721875 17.14257812 12.359375 17.44140625 C9.80896548 18.04522837 8.44677771 17.8473932 6 17 C6.33 18.32 6.66 19.64 7 21 C6.34 21 5.68 21 5 21 C3 19 3 19 2 16 C1.01 16 0.02 16 -1 16 C-2.33981486 15.6937566 -3.67511887 15.36548445 -5 15 C-5.33 13.68 -5.66 12.36 -6 11 C-4.68 10.67 -3.36 10.34 -2 10 C-2 9.01 -2 8.02 -2 7 C-0.68 7 0.64 7 2 7 C2 6.01 2 5.02 2 4 C1.01 4 0.02 4 -1 4 C-1 2 -1 2 0 1 C0 0.67 0 0.34 0 0 Z " fill="#604133" transform="translate(163,118)"/>
<path d="M0 0 C0.33 0 0.66 0 1 0 C1.20298831 7.39779603 1.1183586 13.89726822 -1 21 C-1.3564309 22.99601306 -1.69922675 24.994845 -2 27 C-3.32 25.68 -4.64 24.36 -6 23 C-6.66 23.33 -7.32 23.66 -8 24 C-8 23.01 -8 22.02 -8 21 C-9.65 21.99 -11.3 22.98 -13 24 C-12.52140759 22.39566191 -12.04210442 20.79153584 -11.5625 19.1875 C-11.29566406 18.29417969 -11.02882812 17.40085937 -10.75390625 16.48046875 C-9.29991961 11.69662669 -8.04121478 10.00500586 -4 7 C-3.67 7.99 -3.34 8.98 -3 10 C-2.34 10 -1.68 10 -1 10 C-0.67 6.7 -0.34 3.4 0 0 Z " fill="#6A5245" transform="translate(201,71)"/>
<path d="M0 0 C0.78375 0.350625 1.5675 0.70125 2.375 1.0625 C3.24125 1.371875 4.1075 1.68125 5 2 C5.66 1.67 6.32 1.34 7 1 C7.99 1.66 8.98 2.32 10 3 C8.95125002 5.62187494 8.35068687 6.79371361 5.875 8.25 C5.25625 8.4975 4.6375 8.745 4 9 C4.99 9.33 5.98 9.66 7 10 C6.34 11.32 5.68 12.64 5 14 C4.67 13.01 4.34 12.02 4 11 C2.35 11 0.7 11 -1 11 C-1 11.66 -1 12.32 -1 13 C-2.40945366 13.56016748 -3.8280031 14.09748502 -5.25 14.625 C-6.03890625 14.92664063 -6.8278125 15.22828125 -7.640625 15.5390625 C-10.49917715 16.09752136 -11.58959839 15.53690745 -14 14 C-13.44570312 13.74605469 -12.89140625 13.49210938 -12.3203125 13.23046875 C-11.59585938 12.88628906 -10.87140625 12.54210937 -10.125 12.1875 C-9.04605469 11.68283203 -9.04605469 11.68283203 -7.9453125 11.16796875 C-5.69457194 10.00532903 -5.69457194 10.00532903 -4 7 C-4.66 6.67 -5.32 6.34 -6 6 C-6 5.34 -6 4.68 -6 4 C-5.01 4 -4.02 4 -3 4 C-3 4.66 -3 5.32 -3 6 C-2.01 5.34 -1.02 4.68 0 4 C0 2.68 0 1.36 0 0 Z " fill="#725E50" transform="translate(183,120)"/>
<path d="M0 0 C0.33 0.99 0.66 1.98 1 3 C1.66 3 2.32 3 3 3 C3.33 3.99 3.66 4.98 4 6 C6.97 6.495 6.97 6.495 10 7 C9.01 7.33 8.02 7.66 7 8 C7 8.66 7 9.32 7 10 C5.34928604 11.02611949 3.68029994 12.02308143 2 13 C1.505 13.53625 1.01 14.0725 0.5 14.625 C-1.51536084 16.4724141 -3.33833049 16.64031493 -6 17 C-5.62964591 10.21017493 -3.59523599 5.73115109 0 0 Z " fill="#695145" transform="translate(45,151)"/>
<path d="M0 0 C0.33 0.66 0.66 1.32 1 2 C1.66 1.67 2.32 1.34 3 1 C3.33 2.32 3.66 3.64 4 5 C3.071875 5.268125 2.14375 5.53625 1.1875 5.8125 C-1.94567154 6.7170579 -1.94567154 6.7170579 -3.5 8.5625 C-5.72325093 10.69311548 -8.01958067 10.6688423 -11 11 C-4.62470309 0 -4.62470309 0 0 0 Z " fill="#5A3D2C" transform="translate(193,92)"/>
<path d="M0 0 C0.66 0 1.32 0 2 0 C5.06404952 7.30851156 8.08208171 14.63184879 11 22 C10.01 22.33 9.02 22.66 8 23 C4.47598683 19.95653408 3.23984712 16.6766671 2.5859375 12.10546875 C2.51632813 11.14253906 2.44671875 10.17960937 2.375 9.1875 C2.30023438 8.21167969 2.22546875 7.23585938 2.1484375 6.23046875 C2.07496094 5.12638672 2.07496094 5.12638672 2 4 C1.34 4 0.68 4 0 4 C0 2.68 0 1.36 0 0 Z " fill="#6C5950" transform="translate(152,77)"/>
<path d="M0 0 C0.66 0.99 1.32 1.98 2 3 C0.576875 3.12375 0.576875 3.12375 -0.875 3.25 C-4.10461791 3.65074923 -4.10461791 3.65074923 -5.375 6.0625 C-5.58125 6.701875 -5.7875 7.34125 -6 8 C-8.97 7.505 -8.97 7.505 -12 7 C-12.33 5.35 -12.66 3.7 -13 2 C-12.236875 1.855625 -11.47375 1.71125 -10.6875 1.5625 C-2.1625239 -0.22179732 -2.1625239 -0.22179732 0 0 Z " fill="#705B4B" transform="translate(112,131)"/>
<path d="M0 0 C3.92130921 0.78426184 7.4420035 2.18743574 11 4 C11.9375 6.1875 11.9375 6.1875 12 8 C5.9453125 8.1953125 5.9453125 8.1953125 4 8 C3.34 7.34 2.68 6.68 2 6 C2.33 5.34 2.66 4.68 3 4 C2.34 4 1.68 4 1 4 C0.67 2.68 0.34 1.36 0 0 Z " fill="#543829" transform="translate(45,150)"/>
<path d="M0 0 C1.175625 0.5259375 1.175625 0.5259375 2.375 1.0625 C3.674375 1.5265625 3.674375 1.5265625 5 2 C5.66 1.67 6.32 1.34 7 1 C7.99 1.66 8.98 2.32 10 3 C9.5 4.875 9.5 4.875 8 7 C5.34822355 7.98494554 2.79452693 8.45912382 0 9 C0.66 7.35 1.32 5.7 2 4 C1.34 3.67 0.68 3.34 0 3 C0 2.01 0 1.02 0 0 Z " fill="#675343" transform="translate(183,120)"/>
<path d="M0 0 C1.32 0 2.64 0 4 0 C4 0.66 4 1.32 4 2 C4.66 2 5.32 2 6 2 C7.1875 4.125 7.1875 4.125 8 7 C6.625 10.3125 6.625 10.3125 5 13 C4.67 12.01 4.34 11.02 4 10 C3.34 9.67 2.68 9.34 2 9 C1.3671875 6.93359375 1.3671875 6.93359375 0.875 4.4375 C0.70742187 3.61121094 0.53984375 2.78492188 0.3671875 1.93359375 C0.24601563 1.29550781 0.12484375 0.65742188 0 0 Z " fill="#685046" transform="translate(146,27)"/>
<path d="M0 0 C0.66 0.99 1.32 1.98 2 3 C1.690625 3.598125 1.38125 4.19625 1.0625 4.8125 C-0.10209704 7.08956772 -0.10209704 7.08956772 -1 10 C-0.01 10.33 0.98 10.66 2 11 C0 14 0 14 -3 15 C-3.33 14.67 -3.66 14.34 -4 14 C-4.66 14 -5.32 14 -6 14 C-5.31113213 10.61108678 -4.01283514 7.81988387 -2.4375 4.75 C-1.75494141 3.41195312 -1.75494141 3.41195312 -1.05859375 2.046875 C-0.70925781 1.37140625 -0.35992187 0.6959375 0 0 Z " fill="#695143" transform="translate(22,199)"/>
<path d="M0 0 C1.32 0 2.64 0 4 0 C6.10428384 5.12919186 6.21755666 9.5610835 6 15 C3.32522069 12.32522069 2.3535886 9.507025 1 6 C1 5.01 1 4.02 1 3 C0.34 2.67 -0.32 2.34 -1 2 C-0.67 1.34 -0.34 0.68 0 0 Z " fill="#715445" transform="translate(116,92)"/>
<path d="M0 0 C0.66 0.66 1.32 1.32 2 2 C0.73453697 6.53457586 -0.92990492 9.45020257 -4 13 C-4.99 14.485 -4.99 14.485 -6 16 C-6.66 15.67 -7.32 15.34 -8 15 C-5.36 10.05 -2.72 5.1 0 0 Z " fill="#624B43" transform="translate(61,118)"/>
<path d="M0 0 C1.32 1.65 2.64 3.3 4 5 C2.3125 7.0625 2.3125 7.0625 0 9 C-2.75 8.75 -2.75 8.75 -5 8 C-2.25 1.125 -2.25 1.125 0 0 Z " fill="#59412E" transform="translate(44,156)"/>
<path d="M0 0 C1.97625073 2.9643761 3.29886906 5.78787746 4.6875 9.0625 C5.14511719 10.12597656 5.60273438 11.18945312 6.07421875 12.28515625 C6.37972656 13.18105469 6.68523437 14.07695312 7 15 C6.67 15.66 6.34 16.32 6 17 C5.34 17 4.68 17 4 17 C4 15.02 4 13.04 4 11 C3.34 11 2.68 11 2 11 C-0.32590854 7.36576791 -0.16265833 4.22911669 0 0 Z " fill="#786A62" transform="translate(187,159)"/>
<path d="M0 0 C0.33 0.99 0.66 1.98 1 3 C-0.08073852 5.16147703 -1.19363264 6.41039672 -3 8 C-3.66 8 -4.32 8 -5 8 C-5.33 8.66 -5.66 9.32 -6 10 C-6.66 10 -7.32 10 -8 10 C-7.44449305 6.40094092 -6.25112752 5.00090201 -3.4375 2.75 C-2.79683594 2.22921875 -2.15617187 1.7084375 -1.49609375 1.171875 C-1.00238281 0.78515625 -0.50867187 0.3984375 0 0 Z " fill="#6C5C48" transform="translate(46,169)"/>
<path d="M0 0 C0.66 0.66 1.32 1.32 2 2 C1.34 2 0.68 2 0 2 C0.33 3.32 0.66 4.64 1 6 C0.01 6 -0.98 6 -2 6 C-2.33 6.33 -2.66 6.66 -3 7 C-3.66 7.66 -4.32 8.32 -5 9 C-5 8.01 -5 7.02 -5 6 C-5.66 5.67 -6.32 5.34 -7 5 C-4.63707344 2.47411298 -3.33537489 1.11179163 0 0 Z " fill="#523426" transform="translate(165,133)"/>
<path d="M0 0 C0.639375 0.2475 1.27875 0.495 1.9375 0.75 C2.2675 1.74 2.5975 2.73 2.9375 3.75 C3.9275 3.75 4.9175 3.75 5.9375 3.75 C5.6075 4.74 5.2775 5.73 4.9375 6.75 C2.5625 6.4375 2.5625 6.4375 -0.0625 5.75 C-0.7225 4.76 -1.3825 3.77 -2.0625 2.75 C-2.7225 2.09 -3.3825 1.43 -4.0625 0.75 C-2.0625 -0.25 -2.0625 -0.25 0 0 Z " fill="#786258" transform="translate(166.0625,109.25)"/>
<path d="M0 0 C0.33 0 0.66 0 1 0 C1 3.3 1 6.6 1 10 C-0.32 9.67 -1.64 9.34 -3 9 C-2.5020163 5.26512223 -2.12508244 3.18762365 0 0 Z " fill="#684F47" transform="translate(11,223)"/>
<path d="M0 0 C0 0.66 0 1.32 0 2 C-0.99 2.495 -0.99 2.495 -2 3 C-3.04808041 4.97522846 -4.0520411 6.97481509 -5 9 C-5.66 8.67 -6.32 8.34 -7 8 C-7 6.02 -7 4.04 -7 2 C-2.25 0 -2.25 0 0 0 Z " fill="#6F4F45" transform="translate(80,149)"/>
<path d="M0 0 C-0.33 0.99 -0.66 1.98 -1 3 C-4.5625 4.6875 -4.5625 4.6875 -8 6 C-8.66 4.68 -9.32 3.36 -10 2 C-3.375 0 -3.375 0 0 0 Z " fill="#6C5047" transform="translate(230,31)"/>
<path d="M0 0 C0 0.66 0 1.32 0 2 C-1.32 2 -2.64 2 -4 2 C-4 2.66 -4 3.32 -4 4 C-4.66 4 -5.32 4 -6 4 C-6 4.99 -6 5.98 -6 7 C-6.99 6.67 -7.98 6.34 -9 6 C-9 4.68 -9 3.36 -9 2 C-5.86501708 0.14223235 -3.62528568 -0.20140476 0 0 Z " fill="#7E4E46" transform="translate(220,34)"/>
<path d="M0 0 C0.99 0.33 1.98 0.66 3 1 C-0.17320782 4.53586014 -2.16743695 6.58578031 -7 7 C-7 5.68 -7 4.36 -7 3 C-6.21625 3.061875 -5.4325 3.12375 -4.625 3.1875 C-3.75875 3.125625 -2.8925 3.06375 -2 3 C-1.34 2.01 -0.68 1.02 0 0 Z " fill="#6E6158" transform="translate(46,161)"/>
<path d="M0 0 C1.875 0.625 1.875 0.625 4 2 C5.25 5.125 5.25 5.125 6 8 C5.01 8.33 4.02 8.66 3 9 C1.5 7.875 1.5 7.875 0 6 C-0.1875 2.8125 -0.1875 2.8125 0 0 Z " fill="#645045" transform="translate(157,91)"/>
<path d="M0 0 C3.49403583 0.72376457 6.51998905 2.06285206 9.75 3.5625 C11.22726563 4.24505859 11.22726563 4.24505859 12.734375 4.94140625 C13.48203125 5.29074219 14.2296875 5.64007813 15 6 C11.41563853 7.19478716 9.63093708 6.96330984 6 6 C3.75 4.0625 3.75 4.0625 2 2 C1.34 1.34 0.68 0.68 0 0 Z " fill="#79655C" transform="translate(162,14)"/>
<path d="M0 0 C2.12508244 3.18762365 2.5020163 5.26512223 3 9 C1.02 9.33 -0.96 9.66 -3 10 C-3 9.34 -3 8.68 -3 8 C-2.34 7.67 -1.68 7.34 -1 7 C-0.59270772 4.67843403 -0.25561323 2.3431213 0 0 Z " fill="#775F59" transform="translate(213,223)"/>
<path d="M0 0 C1.98 0.66 3.96 1.32 6 2 C5.34 3.32 4.68 4.64 4 6 C3.34 6 2.68 6 2 6 C1.67 6.66 1.34 7.32 1 8 C0.26919734 6.02253397 -0.39421747 4.01927511 -1 2 C-0.67 1.34 -0.34 0.68 0 0 Z " fill="#4D392F" transform="translate(129,125)"/>
<path d="M0 0 C0.66 0.99 1.32 1.98 2 3 C1.690625 3.598125 1.38125 4.19625 1.0625 4.8125 C-0.10209704 7.08956772 -0.10209704 7.08956772 -1 10 C-2.32 10.33 -3.64 10.66 -5 11 C-3.35 7.37 -1.7 3.74 0 0 Z " fill="#795C54" transform="translate(22,199)"/>
<path d="M0 0 C3.16524451 0.33913334 3.97600118 0.97247195 6.125 3.4375 C6.74375 4.283125 7.3625 5.12875 8 6 C8.66 6.66 9.32 7.32 10 8 C8.02 8 6.04 8 4 8 C4.33 7.01 4.66 6.02 5 5 C4.34 5 3.68 5 3 5 C2.87625 4.360625 2.7525 3.72125 2.625 3.0625 C2.315625 2.0415625 2.315625 2.0415625 2 1 C1.34 0.67 0.68 0.34 0 0 Z " fill="#7C5F51" transform="translate(163,118)"/>
<path d="M0 0 C1.32 0.66 2.64 1.32 4 2 C4 2.99 4 3.98 4 5 C1.69 5.33 -0.62 5.66 -3 6 C-1.125 1.125 -1.125 1.125 0 0 Z " fill="#644F43" transform="translate(93,194)"/>
<path d="M0 0 C-1 2 -1 2 -4.3125 3.25 C-8 4 -8 4 -10.4375 3.125 C-10.953125 2.75375 -11.46875 2.3825 -12 2 C-8.09971775 -0.60018816 -4.52565431 -0.15085514 0 0 Z " fill="#8C7366" transform="translate(181,132)"/>
<path d="M0 0 C1.99954746 -0.04254356 4.00041636 -0.04080783 6 0 C7 1 7 1 7.09765625 3.28515625 C7.08605469 4.20167969 7.07445312 5.11820313 7.0625 6.0625 C7.05347656 6.98160156 7.04445312 7.90070312 7.03515625 8.84765625 C7.02355469 9.55792969 7.01195312 10.26820312 7 11 C6.67 11 6.34 11 6 11 C5.67 8.36 5.34 5.72 5 3 C3.35 3 1.7 3 0 3 C0 2.01 0 1.02 0 0 Z " fill="#827063" transform="translate(231,31)"/>
<path d="M0 0 C3 0 3 0 6 1 C5.34 2.32 4.68 3.64 4 5 C2.68 5 1.36 5 0 5 C-0.33 4.01 -0.66 3.02 -1 2 C-0.67 1.34 -0.34 0.68 0 0 Z " fill="#4E362B" transform="translate(151,167)"/>
<path d="M0 0 C1.32 0.66 2.64 1.32 4 2 C3.01 2.33 2.02 2.66 1 3 C0.67 4.98 0.34 6.96 0 9 C-0.99 8.67 -1.98 8.34 -3 8 C-1.125 2.25 -1.125 2.25 0 0 Z " fill="#816F59" transform="translate(181,136)"/>
<path d="M0 0 C0.66 0 1.32 0 2 0 C1.39009109 3.55780196 0.4216319 6.6828589 -1 10 C-1.66 9.67 -2.32 9.34 -3 9 C-2.01 6.03 -1.02 3.06 0 0 Z " fill="#674C42" transform="translate(141,49)"/>
<path d="M0 0 C0.66 0.66 1.32 1.32 2 2 C1.625 4.125 1.625 4.125 1 6 C-1.31 5.67 -3.62 5.34 -6 5 C-2.25 2 -2.25 2 0 2 C0 1.34 0 0.68 0 0 Z " fill="#755843" transform="translate(58,160)"/>
<path d="M0 0 C0.66 0.66 1.32 1.32 2 2 C1.34 2 0.68 2 0 2 C-0.33 2.99 -0.66 3.98 -1 5 C-3.5625 6.1875 -3.5625 6.1875 -6 7 C-5.25 4.0625 -5.25 4.0625 -4 1 C-2 0 -2 0 0 0 Z " fill="#5F4237" transform="translate(56,135)"/>
<path d="M0 0 C2.0625 0.4375 2.0625 0.4375 4 1 C4.33 2.65 4.66 4.3 5 6 C3.35 5.67 1.7 5.34 0 5 C-0.5625 3.0625 -0.5625 3.0625 -1 1 C-0.67 0.67 -0.34 0.34 0 0 Z " fill="#735749" transform="translate(194,71)"/>
<path d="M0 0 C0.33 0.66 0.66 1.32 1 2 C1.66 2 2.32 2 3 2 C3 2.99 3 3.98 3 5 C1.02 5.99 -0.96 6.98 -3 8 C-2.690625 7.236875 -2.38125 6.47375 -2.0625 5.6875 C-1.32106407 3.81210323 -0.63771783 1.91315348 0 0 Z " fill="#887263" transform="translate(89,56)"/>
<path d="M0 0 C0.66 1.32 1.32 2.64 2 4 C0.02 4.33 -1.96 4.66 -4 5 C-4 3.68 -4 2.36 -4 1 C-2 0 -2 0 0 0 Z " fill="#512C20" transform="translate(16,228)"/>
<path d="M0 0 C0.66 0 1.32 0 2 0 C2 0.66 2 1.32 2 2 C1.34 2 0.68 2 0 2 C0.33 3.65 0.66 5.3 1 7 C0.01 7.33 -0.98 7.66 -2 8 C-2.33 8.66 -2.66 9.32 -3 10 C-2.69201674 8.51988629 -2.378482 7.04092675 -2.0625 5.5625 C-1.88847656 4.73878906 -1.71445313 3.91507813 -1.53515625 3.06640625 C-1 1 -1 1 0 0 Z " fill="#8A776C" transform="translate(152,178)"/>
<path d="M0 0 C0.33 0.99 0.66 1.98 1 3 C1.66 3 2.32 3 3 3 C2.67 4.65 2.34 6.3 2 8 C0.68 7.67 -0.64 7.34 -2 7 C-1.42415568 4.61435923 -0.77772405 2.33317216 0 0 Z " fill="#837067" transform="translate(85,64)"/>
<path d="M0 0 C0.33 0.66 0.66 1.32 1 2 C0.34 2 -0.32 2 -1 2 C-1.28875 2.639375 -1.5775 3.27875 -1.875 3.9375 C-3 6 -3 6 -5 7 C-5.625 5.125 -5.625 5.125 -6 3 C-3.8614515 0.8614515 -2.86724686 0.57344937 0 0 Z " fill="#7B665C" transform="translate(232,56)"/>
<path d="M0 0 C0.33 0.99 0.66 1.98 1 3 C-0.32 3.33 -1.64 3.66 -3 4 C-3 4.66 -3 5.32 -3 6 C-4.65 6 -6.3 6 -8 6 C-6.3584951 2.7169902 -3.17097149 1.72962081 0 0 Z " fill="#89675D" transform="translate(70,153)"/>
<path d="M0 0 C2.31 0.33 4.62 0.66 7 1 C4.37801226 3.15377564 2.35595828 4.40072174 -1 5 C-0.67 3.35 -0.34 1.7 0 0 Z " fill="#7B5E57" transform="translate(57,152)"/>
<path d="M0 0 C1.32 0.66 2.64 1.32 4 2 C2.71034824 3.37562854 1.37310707 4.70766393 0 6 C-0.66 6 -1.32 6 -2 6 C-1.125 1.125 -1.125 1.125 0 0 Z " fill="#6C5A51" transform="translate(93,48)"/>
<path d="M0 0 C-0.33 0.66 -0.66 1.32 -1 2 C-3.31 2 -5.62 2 -8 2 C-8 1.34 -8 0.68 -8 0 C-5.13822943 -1.43088528 -3.06624227 -0.59991697 0 0 Z " fill="#503F35" transform="translate(192,231)"/>
<path d="M0 0 C2.17854707 3.2678206 3.49760034 6.38058265 5 10 C3.68 9.67 2.36 9.34 1 9 C1 7.35 1 5.7 1 4 C0.34 3.67 -0.32 3.34 -1 3 C-0.67 2.01 -0.34 1.02 0 0 Z " fill="#82766F" transform="translate(199,188)"/>
<path d="M0 0 C0.33 0.66 0.66 1.32 1 2 C1.99 2.33 2.98 2.66 4 3 C3.01 3.495 3.01 3.495 2 4 C2 4.66 2 5.32 2 6 C-1 5 -1 5 -3 3 C-2.01 2.67 -1.02 2.34 0 2 C0 1.34 0 0.68 0 0 Z " fill="#6D5447" transform="translate(51,165)"/>
<path d="M0 0 C0.99 0.99 1.98 1.98 3 3 C2.01 3 1.02 3 0 3 C0 2.01 0 1.02 0 0 Z M-3 5 C-2.01 5.33 -1.02 5.66 0 6 C-0.99 7.485 -0.99 7.485 -2 9 C-2.66 8.67 -3.32 8.34 -4 8 C-3.67 7.01 -3.34 6.02 -3 5 Z " fill="#543425" transform="translate(172,147)"/>
<path d="M0 0 C0.99 0.66 1.98 1.32 3 2 C1.35 3.65 -0.3 5.3 -2 7 C-2 6.34 -2 5.68 -2 5 C-2.66 4.67 -3.32 4.34 -4 4 C-2.68 2.68 -1.36 1.36 0 0 Z " fill="#8A754D" transform="translate(153,140)"/>
<path d="M0 0 C3.465 1.485 3.465 1.485 7 3 C6.34 3.66 5.68 4.32 5 5 C4.01 5 3.02 5 2 5 C2 4.34 2 3.68 2 3 C0.68 2.67 -0.64 2.34 -2 2 C-1.34 2 -0.68 2 0 2 C0 1.34 0 0.68 0 0 Z " fill="#503325" transform="translate(178,121)"/>
<path d="M0 0 C0.99 0.33 1.98 0.66 3 1 C1.02 3.97 1.02 3.97 -1 7 C-1.99 6.34 -2.98 5.68 -4 5 C-3.34 4.01 -2.68 3.02 -2 2 C-1.34 2 -0.68 2 0 2 C0 1.34 0 0.68 0 0 Z " fill="#837267" transform="translate(207,39)"/>
<path d="M0 0 C0.99 0.99 1.98 1.98 3 3 C1.68 4.32 0.36 5.64 -1 7 C-2 4 -2 4 -1.0625 1.8125 C-0.5365625 0.9153125 -0.5365625 0.9153125 0 0 Z " fill="#735549" transform="translate(143,181)"/>
<path d="M0 0 C0.66 0 1.32 0 2 0 C1.67 2.97 1.34 5.94 1 9 C-1 5 -1 5 -2 2 C-1.34 1.34 -0.68 0.68 0 0 Z " fill="#64534A" transform="translate(125,111)"/>
<path d="M0 0 C1.32 0.66 2.64 1.32 4 2 C4 2.66 4 3.32 4 4 C2.02 4.66 0.04 5.32 -2 6 C-1.34 4.02 -0.68 2.04 0 0 Z " fill="#4E3423" transform="translate(189,58)"/>
<path d="M0 0 C2 3 2 3 1.625 5.6875 C1.41875 6.450625 1.2125 7.21375 1 8 C-0.5 6.75 -0.5 6.75 -2 5 C-2 3.68 -2 2.36 -2 1 C-1.34 0.67 -0.68 0.34 0 0 Z " fill="#846F5D" transform="translate(62,216)"/>
<path d="M0 0 C0.33 0 0.66 0 1 0 C1 2.31 1 4.62 1 7 C-0.32 6.67 -1.64 6.34 -3 6 C-2.01 4.02 -1.02 2.04 0 0 Z " fill="#4D362D" transform="translate(28,187)"/>
<path d="M0 0 C0.99 0 1.98 0 3 0 C3 0.99 3 1.98 3 3 C3.66 3.33 4.32 3.66 5 4 C4.01 4.33 3.02 4.66 2 5 C1.01 4.34 0.02 3.68 -1 3 C-0.67 2.01 -0.34 1.02 0 0 Z " fill="#5B2D24" transform="translate(40,160)"/>
<path d="M0 0 C1.32 0 2.64 0 4 0 C4 0.66 4 1.32 4 2 C4.66 2.33 5.32 2.66 6 3 C3.92446352 3.5534764 2.15634036 4 0 4 C0 2.68 0 1.36 0 0 Z " fill="#52281E" transform="translate(96,136)"/>
<path d="M0 0 C0.93065133 2.60582371 1.14917407 3.64198224 0.0625 6.25 C-0.4634375 7.11625 -0.4634375 7.11625 -1 8 C-1.66 8 -2.32 8 -3 8 C-2.37240135 5.07120629 -1.41377341 2.63904371 0 0 Z " fill="#74675F" transform="translate(79,78)"/>
</svg>
